<svg width="146" height="177" viewBox="0 0 146 177" fill="none" xmlns="http://www.w3.org/2000/svg">
<g filter="url(#filter0_bd)">
<path d="M127.919 122.293L141.831 150.254C136.834 155.779 129.448 160.279 119.674 163.752C110.056 167.072 99.7561 168.685 88.7752 168.59C63.5655 168.373 43.1387 160.541 27.4949 145.094C11.8537 129.337 4.14084 108.931 4.35621 83.8761C4.56626 59.4397 12.1628 39.3977 27.1459 23.7501C42.1289 8.1025 63.0759 0.394556 89.9869 0.626247C100.195 0.71413 109.693 2.34263 118.482 5.51174C127.271 8.68086 134.273 12.84 139.488 17.989L122.777 45.6862C112.008 38.9426 100.978 35.5222 89.6878 35.425C76.5416 35.3118 65.6008 39.5484 56.8654 48.1348C48.2859 56.568 43.929 68.5949 43.7947 84.2157C43.6724 98.4445 48.1332 110.315 57.1771 119.828C66.2237 129.032 78.016 133.696 92.5542 133.821C105.546 133.933 117.334 130.09 127.919 122.293Z" fill="white" fill-opacity="0.1"/>
</g>
<defs>
<filter id="filter0_bd" x="-25.6482" y="-29.3788" width="197.479" height="227.973" filterUnits="userSpaceOnUse" color-interpolation-filters="sRGB">
<feFlood flood-opacity="0" result="BackgroundImageFix"/>
<feGaussianBlur in="BackgroundImage" stdDeviation="15"/>
<feComposite in2="SourceAlpha" operator="in" result="effect1_backgroundBlur"/>
<feColorMatrix in="SourceAlpha" type="matrix" values="0 0 0 0 0 0 0 0 0 0 0 0 0 0 0 0 0 0 127 0"/>
<feOffset dy="4"/>
<feGaussianBlur stdDeviation="2"/>
<feColorMatrix type="matrix" values="0 0 0 0 0 0 0 0 0 0 0 0 0 0 0 0 0 0 0.25 0"/>
<feBlend mode="normal" in2="effect1_backgroundBlur" result="effect2_dropShadow"/>
<feBlend mode="normal" in="SourceGraphic" in2="effect2_dropShadow" result="shape"/>
</filter>
</defs>
</svg>
