<svg width="182" height="177" viewBox="0 0 182 177" fill="none" xmlns="http://www.w3.org/2000/svg">
<g filter="url(#filter0_bd)">
<path d="M4.92259 83.8761C5.12864 59.9037 13.2652 40.021 29.3322 24.228C45.5552 8.28179 66.4262 0.418522 91.9453 0.638229C117.31 0.856605 137.891 8.69008 153.69 24.1387C169.797 39.5899 177.742 59.9977 177.524 85.3621C177.314 109.799 168.944 129.834 152.415 145.468C136.04 161.104 115.402 168.814 90.5015 168.6C65.2918 168.383 44.633 160.549 28.5252 145.098C12.5721 129.648 4.70456 109.241 4.92259 83.8761ZM44.3611 84.2157C44.2428 97.9805 48.7049 109.697 57.7475 119.364C66.6367 128.876 77.6545 133.688 90.8006 133.801C105.648 133.929 117.21 129.466 125.485 120.411C133.763 111.048 137.963 99.2514 138.086 85.0226C138.212 70.3298 133.828 58.4596 124.935 49.4121C115.889 40.2085 104.792 35.5501 91.6461 35.4369C78.036 35.3198 66.7838 39.7857 57.8897 48.8348C48.9956 57.8839 44.4861 69.6775 44.3611 84.2157Z" fill="white" fill-opacity="0.1"/>
</g>
<defs>
<filter id="filter0_bd" x="-25.0818" y="-29.3662" width="232.61" height="227.971" filterUnits="userSpaceOnUse" color-interpolation-filters="sRGB">
<feFlood flood-opacity="0" result="BackgroundImageFix"/>
<feGaussianBlur in="BackgroundImage" stdDeviation="15"/>
<feComposite in2="SourceAlpha" operator="in" result="effect1_backgroundBlur"/>
<feColorMatrix in="SourceAlpha" type="matrix" values="0 0 0 0 0 0 0 0 0 0 0 0 0 0 0 0 0 0 127 0"/>
<feOffset dy="4"/>
<feGaussianBlur stdDeviation="2"/>
<feColorMatrix type="matrix" values="0 0 0 0 0 0 0 0 0 0 0 0 0 0 0 0 0 0 0.25 0"/>
<feBlend mode="normal" in2="effect1_backgroundBlur" result="effect2_dropShadow"/>
<feBlend mode="normal" in="SourceGraphic" in2="effect2_dropShadow" result="shape"/>
</filter>
</defs>
</svg>
